<svg id="visual" viewBox="0 0 960 540" width="960" height="540" xmlns="http://www.w3.org/2000/svg" xmlns:xlink="http://www.w3.org/1999/xlink" version="1.1"><rect x="0" y="0" width="960" height="540" fill="#CECECE"></rect><path d="M0 251L22.8 260.8C45.7 270.7 91.3 290.3 137 287C182.7 283.7 228.3 257.3 274 248.7C319.7 240 365.3 249 411.2 261.3C457 273.7 503 289.3 548.8 302C594.7 314.7 640.3 324.3 686 328.7C731.7 333 777.3 332 823 325.3C868.7 318.7 914.3 306.3 937.2 300.2L960 294L960 541L937.2 541C914.3 541 868.7 541 823 541C777.3 541 731.7 541 686 541C640.3 541 594.7 541 548.8 541C503 541 457 541 411.2 541C365.3 541 319.7 541 274 541C228.3 541 182.7 541 137 541C91.3 541 45.7 541 22.8 541L0 541Z" fill="#f19473"></path><path d="M0 287L22.8 287C45.7 287 91.3 287 137 298.7C182.7 310.3 228.3 333.7 274 342.7C319.7 351.7 365.3 346.3 411.2 336.2C457 326 503 311 548.8 316.3C594.7 321.7 640.3 347.3 686 350.5C731.7 353.7 777.3 334.3 823 317.2C868.7 300 914.3 285 937.2 277.5L960 270L960 541L937.2 541C914.3 541 868.7 541 823 541C777.3 541 731.7 541 686 541C640.3 541 594.7 541 548.8 541C503 541 457 541 411.2 541C365.3 541 319.7 541 274 541C228.3 541 182.7 541 137 541C91.3 541 45.7 541 22.8 541L0 541Z" fill="#ec9a85"></path><path d="M0 343L22.8 345.5C45.7 348 91.3 353 137 358.2C182.7 363.3 228.3 368.7 274 364.7C319.7 360.7 365.3 347.3 411.2 348.5C457 349.7 503 365.3 548.8 376.8C594.7 388.3 640.3 395.7 686 389.5C731.7 383.3 777.3 363.7 823 358.2C868.7 352.7 914.3 361.3 937.2 365.7L960 370L960 541L937.2 541C914.3 541 868.7 541 823 541C777.3 541 731.7 541 686 541C640.3 541 594.7 541 548.8 541C503 541 457 541 411.2 541C365.3 541 319.7 541 274 541C228.3 541 182.7 541 137 541C91.3 541 45.7 541 22.8 541L0 541Z" fill="#e4a196"></path><path d="M0 419L22.8 410.2C45.7 401.3 91.3 383.7 137 386.2C182.7 388.7 228.3 411.3 274 412.7C319.7 414 365.3 394 411.2 392.2C457 390.3 503 406.7 548.8 405.2C594.7 403.7 640.3 384.3 686 376.3C731.7 368.3 777.3 371.7 823 382.7C868.7 393.7 914.3 412.3 937.2 421.7L960 431L960 541L937.2 541C914.3 541 868.7 541 823 541C777.3 541 731.7 541 686 541C640.3 541 594.7 541 548.8 541C503 541 457 541 411.2 541C365.3 541 319.7 541 274 541C228.3 541 182.7 541 137 541C91.3 541 45.7 541 22.8 541L0 541Z" fill="#daa9a4"></path><path d="M0 425L22.8 429C45.7 433 91.3 441 137 443.7C182.7 446.3 228.3 443.7 274 438.5C319.7 433.3 365.3 425.7 411.2 425C457 424.3 503 430.7 548.8 438.8C594.7 447 640.3 457 686 458.3C731.7 459.7 777.3 452.3 823 453.7C868.7 455 914.3 465 937.2 470L960 475L960 541L937.2 541C914.3 541 868.7 541 823 541C777.3 541 731.7 541 686 541C640.3 541 594.7 541 548.8 541C503 541 457 541 411.2 541C365.3 541 319.7 541 274 541C228.3 541 182.7 541 137 541C91.3 541 45.7 541 22.8 541L0 541Z" fill="#ceb1af"></path><path d="M0 479L22.8 479.8C45.7 480.7 91.3 482.3 137 484.7C182.7 487 228.3 490 274 487.3C319.7 484.7 365.3 476.3 411.2 471.5C457 466.7 503 465.3 548.8 463.8C594.7 462.3 640.3 460.7 686 463.2C731.7 465.7 777.3 472.3 823 479.8C868.7 487.3 914.3 495.7 937.2 499.8L960 504L960 541L937.2 541C914.3 541 868.7 541 823 541C777.3 541 731.7 541 686 541C640.3 541 594.7 541 548.8 541C503 541 457 541 411.2 541C365.3 541 319.7 541 274 541C228.3 541 182.7 541 137 541C91.3 541 45.7 541 22.8 541L0 541Z" fill="#c0b9b9"></path></svg>